<svg xmlns="http://www.w3.org/2000/svg" xmlns:xlink="http://www.w3.org/1999/xlink" width="39" height="948" viewBox="0 0 39 948"><defs><style>.a{fill:#fff;stroke:#707070;}.b{clip-path:url(#a);}.c{fill:#a8a8a8;}</style><clipPath id="a"><rect class="a" width="39" height="240"/></clipPath></defs><g class="b"><g transform="translate(-24.597 -59.629)"><path class="c" d="M.013.8,166.65-.033l-.013,2.663L0,3.464Z" transform="translate(2.45 0) rotate(45)"/><path class="c" d="M.013.8,166.65-.033l-.013,2.663L0,3.464Z" transform="translate(2.45 10.599) rotate(45)"/><path class="c" d="M.013.8,166.65-.033l-.013,2.663L0,3.464Z" transform="translate(2.45 20.442) rotate(45)"/><path class="c" d="M.013.8,166.65-.033l-.013,2.663L0,3.464Z" transform="translate(2.45 31.041) rotate(45)"/><path class="c" d="M.013.8,166.65-.033l-.013,2.663L0,3.464Z" transform="translate(2.45 40.883) rotate(45)"/><path class="c" d="M.013.8,166.65-.033l-.013,2.663L0,3.464Z" transform="translate(2.45 51.483) rotate(45)"/><path class="c" d="M.013.8,166.65-.033l-.013,2.663L0,3.464Z" transform="translate(2.45 61.325) rotate(45)"/><path class="c" d="M.013.8,166.65-.033l-.013,2.663L0,3.464Z" transform="translate(2.45 71.924) rotate(45)"/><path class="c" d="M.013.8,166.65-.033l-.013,2.663L0,3.464Z" transform="translate(2.45 82.524) rotate(45)"/><path class="c" d="M.013.8,166.65-.033l-.013,2.663L0,3.464Z" transform="translate(2.45 92.366) rotate(45)"/><path class="c" d="M.013.8,166.65-.033l-.013,2.663L0,3.464Z" transform="translate(2.45 102.965) rotate(45)"/><path class="c" d="M.013.8,166.65-.033l-.013,2.663L0,3.464Z" transform="translate(2.45 112.808) rotate(45)"/><path class="c" d="M.013.8,166.65-.033l-.013,2.663L0,3.464Z" transform="translate(2.45 123.407) rotate(45)"/><path class="c" d="M.013.8,166.65-.033l-.013,2.663L0,3.464Z" transform="translate(2.45 134.006) rotate(45)"/><path class="c" d="M.013.8,166.65-.033l-.013,2.663L0,3.464Z" transform="translate(2.45 143.849) rotate(45)"/><path class="c" d="M.013.8,166.65-.033l-.013,2.663L0,3.464Z" transform="translate(2.45 154.448) rotate(45)"/><path class="c" d="M.013.8,166.65-.033l-.013,2.663L0,3.464Z" transform="translate(2.45 164.29) rotate(45)"/><path class="c" d="M.013.8,166.65-.033l-.013,2.663L0,3.464Z" transform="translate(2.45 174.89) rotate(45)"/><path class="c" d="M.013.8,166.65-.033l-.013,2.663L0,3.464Z" transform="translate(2.45 184.732) rotate(45)"/><path class="c" d="M.013.8,166.65-.033l-.013,2.663L0,3.464Z" transform="translate(2.45 195.331) rotate(45)"/><path class="c" d="M.013.8,166.65-.033l-.013,2.663L0,3.464Z" transform="translate(2.45 205.931) rotate(45)"/><path class="c" d="M.013.8,166.65-.033l-.013,2.663L0,3.464Z" transform="translate(2.45 215.773) rotate(45)"/><path class="c" d="M.013.8,166.65-.033l-.013,2.663L0,3.464Z" transform="translate(2.45 226.372) rotate(45)"/><path class="c" d="M.013.8,166.65-.033l-.013,2.663L0,3.464Z" transform="translate(2.45 236.215) rotate(45)"/><path class="c" d="M.013.8,166.65-.033l-.013,2.663L0,3.464Z" transform="translate(2.45 246.814) rotate(45)"/><path class="c" d="M.013.8,166.65-.033l-.013,2.663L0,3.464Z" transform="translate(2.45 267.256) rotate(45)"/><path class="c" d="M.013.8,166.65-.033l-.013,2.663L0,3.464Z" transform="translate(2.45 256.656) rotate(45)"/></g></g><g transform="translate(0 236)"><g class="b"><g transform="translate(-24.597 -59.629)"><path class="c" d="M.013.8,166.65-.033l-.013,2.663L0,3.464Z" transform="translate(2.45 0) rotate(45)"/><path class="c" d="M.013.8,166.65-.033l-.013,2.663L0,3.464Z" transform="translate(2.45 10.599) rotate(45)"/><path class="c" d="M.013.8,166.65-.033l-.013,2.663L0,3.464Z" transform="translate(2.45 20.442) rotate(45)"/><path class="c" d="M.013.8,166.65-.033l-.013,2.663L0,3.464Z" transform="translate(2.45 31.041) rotate(45)"/><path class="c" d="M.013.8,166.65-.033l-.013,2.663L0,3.464Z" transform="translate(2.45 40.883) rotate(45)"/><path class="c" d="M.013.8,166.65-.033l-.013,2.663L0,3.464Z" transform="translate(2.45 51.483) rotate(45)"/><path class="c" d="M.013.8,166.65-.033l-.013,2.663L0,3.464Z" transform="translate(2.45 61.325) rotate(45)"/><path class="c" d="M.013.8,166.65-.033l-.013,2.663L0,3.464Z" transform="translate(2.45 71.924) rotate(45)"/><path class="c" d="M.013.8,166.65-.033l-.013,2.663L0,3.464Z" transform="translate(2.45 82.524) rotate(45)"/><path class="c" d="M.013.8,166.65-.033l-.013,2.663L0,3.464Z" transform="translate(2.45 92.366) rotate(45)"/><path class="c" d="M.013.8,166.65-.033l-.013,2.663L0,3.464Z" transform="translate(2.45 102.965) rotate(45)"/><path class="c" d="M.013.8,166.65-.033l-.013,2.663L0,3.464Z" transform="translate(2.45 112.808) rotate(45)"/><path class="c" d="M.013.8,166.65-.033l-.013,2.663L0,3.464Z" transform="translate(2.45 123.407) rotate(45)"/><path class="c" d="M.013.8,166.65-.033l-.013,2.663L0,3.464Z" transform="translate(2.45 134.006) rotate(45)"/><path class="c" d="M.013.8,166.65-.033l-.013,2.663L0,3.464Z" transform="translate(2.45 143.849) rotate(45)"/><path class="c" d="M.013.8,166.65-.033l-.013,2.663L0,3.464Z" transform="translate(2.45 154.448) rotate(45)"/><path class="c" d="M.013.8,166.65-.033l-.013,2.663L0,3.464Z" transform="translate(2.45 164.29) rotate(45)"/><path class="c" d="M.013.8,166.65-.033l-.013,2.663L0,3.464Z" transform="translate(2.45 174.89) rotate(45)"/><path class="c" d="M.013.8,166.65-.033l-.013,2.663L0,3.464Z" transform="translate(2.45 184.732) rotate(45)"/><path class="c" d="M.013.8,166.65-.033l-.013,2.663L0,3.464Z" transform="translate(2.45 195.331) rotate(45)"/><path class="c" d="M.013.8,166.65-.033l-.013,2.663L0,3.464Z" transform="translate(2.45 205.931) rotate(45)"/><path class="c" d="M.013.8,166.65-.033l-.013,2.663L0,3.464Z" transform="translate(2.45 215.773) rotate(45)"/><path class="c" d="M.013.8,166.65-.033l-.013,2.663L0,3.464Z" transform="translate(2.45 226.372) rotate(45)"/><path class="c" d="M.013.8,166.65-.033l-.013,2.663L0,3.464Z" transform="translate(2.45 236.215) rotate(45)"/><path class="c" d="M.013.8,166.65-.033l-.013,2.663L0,3.464Z" transform="translate(2.45 246.814) rotate(45)"/><path class="c" d="M.013.8,166.65-.033l-.013,2.663L0,3.464Z" transform="translate(2.45 267.256) rotate(45)"/><path class="c" d="M.013.8,166.65-.033l-.013,2.663L0,3.464Z" transform="translate(2.45 256.656) rotate(45)"/></g></g></g><g transform="translate(0 472)"><g class="b"><g transform="translate(-24.597 -59.629)"><path class="c" d="M.013.8,166.65-.033l-.013,2.663L0,3.464Z" transform="translate(2.45 0) rotate(45)"/><path class="c" d="M.013.8,166.65-.033l-.013,2.663L0,3.464Z" transform="translate(2.45 10.599) rotate(45)"/><path class="c" d="M.013.8,166.65-.033l-.013,2.663L0,3.464Z" transform="translate(2.45 20.442) rotate(45)"/><path class="c" d="M.013.8,166.65-.033l-.013,2.663L0,3.464Z" transform="translate(2.45 31.041) rotate(45)"/><path class="c" d="M.013.8,166.65-.033l-.013,2.663L0,3.464Z" transform="translate(2.45 40.883) rotate(45)"/><path class="c" d="M.013.8,166.65-.033l-.013,2.663L0,3.464Z" transform="translate(2.45 51.483) rotate(45)"/><path class="c" d="M.013.8,166.65-.033l-.013,2.663L0,3.464Z" transform="translate(2.45 61.325) rotate(45)"/><path class="c" d="M.013.8,166.65-.033l-.013,2.663L0,3.464Z" transform="translate(2.45 71.924) rotate(45)"/><path class="c" d="M.013.8,166.65-.033l-.013,2.663L0,3.464Z" transform="translate(2.45 82.524) rotate(45)"/><path class="c" d="M.013.8,166.65-.033l-.013,2.663L0,3.464Z" transform="translate(2.45 92.366) rotate(45)"/><path class="c" d="M.013.8,166.65-.033l-.013,2.663L0,3.464Z" transform="translate(2.45 102.965) rotate(45)"/><path class="c" d="M.013.8,166.65-.033l-.013,2.663L0,3.464Z" transform="translate(2.45 112.808) rotate(45)"/><path class="c" d="M.013.8,166.65-.033l-.013,2.663L0,3.464Z" transform="translate(2.45 123.407) rotate(45)"/><path class="c" d="M.013.8,166.65-.033l-.013,2.663L0,3.464Z" transform="translate(2.45 134.006) rotate(45)"/><path class="c" d="M.013.8,166.65-.033l-.013,2.663L0,3.464Z" transform="translate(2.45 143.849) rotate(45)"/><path class="c" d="M.013.8,166.65-.033l-.013,2.663L0,3.464Z" transform="translate(2.45 154.448) rotate(45)"/><path class="c" d="M.013.8,166.65-.033l-.013,2.663L0,3.464Z" transform="translate(2.45 164.29) rotate(45)"/><path class="c" d="M.013.8,166.65-.033l-.013,2.663L0,3.464Z" transform="translate(2.45 174.89) rotate(45)"/><path class="c" d="M.013.8,166.65-.033l-.013,2.663L0,3.464Z" transform="translate(2.45 184.732) rotate(45)"/><path class="c" d="M.013.8,166.65-.033l-.013,2.663L0,3.464Z" transform="translate(2.45 195.331) rotate(45)"/><path class="c" d="M.013.8,166.65-.033l-.013,2.663L0,3.464Z" transform="translate(2.45 205.931) rotate(45)"/><path class="c" d="M.013.8,166.65-.033l-.013,2.663L0,3.464Z" transform="translate(2.45 215.773) rotate(45)"/><path class="c" d="M.013.8,166.65-.033l-.013,2.663L0,3.464Z" transform="translate(2.45 226.372) rotate(45)"/><path class="c" d="M.013.8,166.65-.033l-.013,2.663L0,3.464Z" transform="translate(2.45 236.215) rotate(45)"/><path class="c" d="M.013.8,166.65-.033l-.013,2.663L0,3.464Z" transform="translate(2.45 246.814) rotate(45)"/><path class="c" d="M.013.8,166.65-.033l-.013,2.663L0,3.464Z" transform="translate(2.45 267.256) rotate(45)"/><path class="c" d="M.013.8,166.65-.033l-.013,2.663L0,3.464Z" transform="translate(2.45 256.656) rotate(45)"/></g></g></g><g transform="translate(0 708)"><g class="b"><g transform="translate(-24.597 -59.629)"><path class="c" d="M.013.8,166.65-.033l-.013,2.663L0,3.464Z" transform="translate(2.45 0) rotate(45)"/><path class="c" d="M.013.8,166.65-.033l-.013,2.663L0,3.464Z" transform="translate(2.45 10.599) rotate(45)"/><path class="c" d="M.013.8,166.65-.033l-.013,2.663L0,3.464Z" transform="translate(2.45 20.442) rotate(45)"/><path class="c" d="M.013.8,166.65-.033l-.013,2.663L0,3.464Z" transform="translate(2.45 31.041) rotate(45)"/><path class="c" d="M.013.8,166.65-.033l-.013,2.663L0,3.464Z" transform="translate(2.45 40.883) rotate(45)"/><path class="c" d="M.013.8,166.65-.033l-.013,2.663L0,3.464Z" transform="translate(2.45 51.483) rotate(45)"/><path class="c" d="M.013.8,166.65-.033l-.013,2.663L0,3.464Z" transform="translate(2.45 61.325) rotate(45)"/><path class="c" d="M.013.8,166.65-.033l-.013,2.663L0,3.464Z" transform="translate(2.45 71.924) rotate(45)"/><path class="c" d="M.013.8,166.65-.033l-.013,2.663L0,3.464Z" transform="translate(2.45 82.524) rotate(45)"/><path class="c" d="M.013.8,166.65-.033l-.013,2.663L0,3.464Z" transform="translate(2.45 92.366) rotate(45)"/><path class="c" d="M.013.8,166.65-.033l-.013,2.663L0,3.464Z" transform="translate(2.45 102.965) rotate(45)"/><path class="c" d="M.013.8,166.65-.033l-.013,2.663L0,3.464Z" transform="translate(2.45 112.808) rotate(45)"/><path class="c" d="M.013.8,166.65-.033l-.013,2.663L0,3.464Z" transform="translate(2.45 123.407) rotate(45)"/><path class="c" d="M.013.8,166.65-.033l-.013,2.663L0,3.464Z" transform="translate(2.45 134.006) rotate(45)"/><path class="c" d="M.013.8,166.65-.033l-.013,2.663L0,3.464Z" transform="translate(2.45 143.849) rotate(45)"/><path class="c" d="M.013.8,166.65-.033l-.013,2.663L0,3.464Z" transform="translate(2.45 154.448) rotate(45)"/><path class="c" d="M.013.8,166.65-.033l-.013,2.663L0,3.464Z" transform="translate(2.45 164.29) rotate(45)"/><path class="c" d="M.013.8,166.65-.033l-.013,2.663L0,3.464Z" transform="translate(2.45 174.89) rotate(45)"/><path class="c" d="M.013.8,166.65-.033l-.013,2.663L0,3.464Z" transform="translate(2.45 184.732) rotate(45)"/><path class="c" d="M.013.8,166.65-.033l-.013,2.663L0,3.464Z" transform="translate(2.45 195.331) rotate(45)"/><path class="c" d="M.013.8,166.65-.033l-.013,2.663L0,3.464Z" transform="translate(2.45 205.931) rotate(45)"/><path class="c" d="M.013.8,166.65-.033l-.013,2.663L0,3.464Z" transform="translate(2.45 215.773) rotate(45)"/><path class="c" d="M.013.8,166.65-.033l-.013,2.663L0,3.464Z" transform="translate(2.45 226.372) rotate(45)"/><path class="c" d="M.013.8,166.65-.033l-.013,2.663L0,3.464Z" transform="translate(2.45 236.215) rotate(45)"/><path class="c" d="M.013.8,166.65-.033l-.013,2.663L0,3.464Z" transform="translate(2.45 246.814) rotate(45)"/><path class="c" d="M.013.8,166.65-.033l-.013,2.663L0,3.464Z" transform="translate(2.45 267.256) rotate(45)"/><path class="c" d="M.013.8,166.65-.033l-.013,2.663L0,3.464Z" transform="translate(2.45 256.656) rotate(45)"/></g></g></g></svg>