<svg xmlns="http://www.w3.org/2000/svg" width="48" height="48" viewBox="0 0 48 48"><defs><style>.a{fill:rgba(255,255,255,0.75);stroke:#6a737b;stroke-width:0.5px;}.b{fill:#6a737b;}.c{stroke:none;}.d{fill:none;}</style></defs><g class="a"><circle class="c" cx="24" cy="24" r="24"/><circle class="d" cx="24" cy="24" r="23.75"/></g><g transform="translate(-415.661 196.069)"><g transform="translate(425.661 -183.531)"><path class="b" d="M453.008-181.753h-1.981v-1.274a.5.5,0,0,0-.5-.5c-6.378,0-10.033,1.351-10.935,1.731-.9-.38-4.557-1.731-10.935-1.731a.5.5,0,0,0-.5.5v1.274h-1.981a.5.5,0,0,0-.5.5v17.772a.5.5,0,0,0,.5.5h26.842a.5.5,0,0,0,.5-.5v-17.772A.5.5,0,0,0,453.008-181.753Zm-12.917.838a28.648,28.648,0,0,1,9.927-1.6v16.763a30.424,30.424,0,0,0-9.927,1.531Zm-10.935-1.6a28.649,28.649,0,0,1,9.927,1.6v16.69a30.425,30.425,0,0,0-9.927-1.531Zm-2.486,1.775h1.477v15.49a.5.5,0,0,0,.5.5,34.88,34.88,0,0,1,7.578.769h-9.56ZM452.5-163.981h-9.56a34.879,34.879,0,0,1,7.578-.769.5.5,0,0,0,.5-.5v-15.49H452.5Z" transform="translate(-425.661 183.531)"/></g><g transform="translate(433.033 -179.806)"><g transform="translate(0 0)"><path class="b" d="M456.162-172.233c0-.231.018-.515.018-.746.746-.089,2.557-.444,2.7-.444.036,0,.036.018.036.053,0,1.971-.036,4.865-.036,6.764l1.243.036c0,.267,0,.533-.018.781h-1.971c-.6,0-1.26.018-1.864.018,0-.267,0-.533.018-.781l1.19-.054a.081.081,0,0,0,.071-.089v-5.486Zm2.859-3.835a.9.9,0,0,1-.941.941.921.921,0,0,1-.941-.923.928.928,0,0,1,.994-.941A.848.848,0,0,1,459.021-176.068Z" transform="translate(-456.162 176.991)"/></g></g></g></svg>