<svg xmlns="http://www.w3.org/2000/svg" width="48" height="48" viewBox="0 0 48 48"><defs><style>.a{fill:rgba(255,255,255,0.75);stroke-width:0.5px;}.a,.b{stroke:#6a737b;}.b,.e{fill:none;}.c{fill:#6a737b;}.d{stroke:none;}</style></defs><g class="a"><circle class="d" cx="24" cy="24" r="24"/><circle class="e" cx="24" cy="24" r="23.75"/></g><g class="b" transform="translate(6 11)"><rect class="d" width="36" height="25" rx="5"/><rect class="e" x="0.5" y="0.5" width="35" height="24" rx="4.5"/></g><g transform="translate(1688.967 -2026.49)"><path class="c" d="M-1677.936,2092.009a14.5,14.5,0,0,0,1.146,4.276.75.75,0,0,0,.7.466.748.748,0,0,0,.406-.12.761.761,0,0,0,.3-.885c1.109.085,2.043.143,2.906.143a16.443,16.443,0,0,0,7.063-1.69,1.721,1.721,0,0,1,.674-.137h.783a.3.3,0,0,0,.3-.3v-.229h10.267a.666.666,0,0,0,.444-.159.583.583,0,0,0,.187-.449v-.166a.583.583,0,0,0-.187-.449.679.679,0,0,0-.485-.158h-10.226v-.252a.3.3,0,0,0-.3-.3h-.255l-.788-.6a1.853,1.853,0,0,0-1.858-1.115.307.307,0,0,0-.135.042,1.16,1.16,0,0,1-1.539-.375.3.3,0,0,0-.073-.067l-.3-.2a.3.3,0,0,0-.279-.026.948.948,0,0,1-.667-.021,1.168,1.168,0,0,1-.56-.728.3.3,0,0,0-.108-.146l-.4-.286a.3.3,0,0,0-.336-.012.893.893,0,0,1-.643.077,1.278,1.278,0,0,1-.717-.724.3.3,0,0,0-.163-.147l-.376-.143a.3.3,0,0,0-.268.026,1.11,1.11,0,0,1-1.539-.471.3.3,0,0,0-.191-.124l-.051-.01a.846.846,0,0,0-.475-.866.855.855,0,0,0-.365-.083.85.85,0,0,0-.767.486,12.286,12.286,0,0,0-1.008,3.145A10.819,10.819,0,0,0-1677.936,2092.009Zm1.889-2.908c2.5.714,4.047,1.583,4.59,2.585a.255.255,0,0,0,.014.023.928.928,0,0,0,.771.376h.6c.818,0,2.269,0,3.248,0v.611a17.123,17.123,0,0,1-9.179.912,12.426,12.426,0,0,1-.209-1.493,11.371,11.371,0,0,1,.125-2.808C-1676.074,2089.24-1676.061,2089.17-1676.048,2089.1Zm12.388,3.825v-.169h10.265a.116.116,0,0,1,.027,0h0v.166h0l-.028,0-.019,0-.009,0Zm-11.859,2.2-.293-.866a17.813,17.813,0,0,0,3.071.208,16.75,16.75,0,0,0,6.338-1.292.3.3,0,0,0,.184-.279v-1.049a.307.307,0,0,0,.007-.066.3.3,0,0,0-.3-.3h-.01c-.957,0-2.641,0-3.547,0h-.6a.346.346,0,0,1-.265-.106c-.64-1.155-2.256-2.09-4.935-2.854l.486-1.39a1.7,1.7,0,0,0,2.135.606l.146.055a1.776,1.776,0,0,0,1.044.931,1.469,1.469,0,0,0,.927-.054l.177.128a1.689,1.689,0,0,0,.854.992,1.526,1.526,0,0,0,.978.077l.146.095a1.765,1.765,0,0,0,2.223.519,1.248,1.248,0,0,1,.855.3,1.112,1.112,0,0,1,.334.435.3.3,0,0,0,.117.2l.948.725a.3.3,0,0,0,.184.062h.055v1.256h-.48a2.324,2.324,0,0,0-.91.185,18.748,18.748,0,0,1-5.149,1.55A23.345,23.345,0,0,1-1675.519,2095.13Zm-.749-8.788a.241.241,0,0,1,.219-.139.239.239,0,0,1,.1.024.241.241,0,0,1,.124.3,11.042,11.042,0,0,0-.746,7.353.307.307,0,0,0,.015.089l.011.032a14.4,14.4,0,0,0,.579,1.941.156.156,0,0,1-.054.184.145.145,0,0,1-.079.023.147.147,0,0,1-.136-.091A11.158,11.158,0,0,1-1676.268,2086.342Z" transform="translate(0 -41.448)"/><path class="c" d="M-1526.247,2043.632a.825.825,0,0,0,.3.6l.088.083h11.2l.048.984.213.057a10.206,10.206,0,0,0,2.293.319,10.64,10.64,0,0,0,2.289-.3l.214-.055.108-1.795-.108-1.8-.214-.055a10.628,10.628,0,0,0-2.289-.3,10.21,10.21,0,0,0-2.293.319l-.213.057-.059,1.208h-11.186l-.088.083A.826.826,0,0,0-1526.247,2043.632Zm12.148-.112.064-1.3a9.35,9.35,0,0,1,1.923-.247,9.761,9.761,0,0,1,1.926.236l.079,1.313-.079,1.313a9.771,9.771,0,0,1-1.926.236,9.328,9.328,0,0,1-1.923-.247Zm-11.542.112a.151.151,0,0,1,.033-.078h10.9v.155h-10.9A.151.151,0,0,1-1525.642,2043.632Z" transform="translate(-145.608)"/><path class="c" d="M-1580.517,2381.715a.824.824,0,0,0,.3.6l.088.083h17.068l.048.984.213.057a10.216,10.216,0,0,0,2.293.319,10.628,10.628,0,0,0,2.289-.3l.214-.055.108-1.795-.108-1.8-.214-.055a10.628,10.628,0,0,0-2.289-.3,10.206,10.206,0,0,0-2.293.319l-.213.057-.059,1.208h-17.057l-.088.083A.824.824,0,0,0-1580.517,2381.715Zm18.019-.112.064-1.3a9.332,9.332,0,0,1,1.923-.247,9.773,9.773,0,0,1,1.926.236l.079,1.313-.079,1.313a9.77,9.77,0,0,1-1.926.236,9.331,9.331,0,0,1-1.923-.247Zm-17.414.112a.15.15,0,0,1,.033-.078h16.77v.155h-16.77A.151.151,0,0,1-1579.911,2381.715Z" transform="translate(-95.495 -324.44)"/></g></svg>