<svg xmlns="http://www.w3.org/2000/svg" xmlns:xlink="http://www.w3.org/1999/xlink" width="221.925" height="144.467" viewBox="0 0 221.925 144.467"><defs><style>.a{fill:rgba(0,142,205,0.55);opacity:0.732;}.b,.c{fill:#fff;font-family:UniversLTStd-Cn, Univers LT Std;}.b{font-size:36px;}.c{font-size:16px;}.d{filter:url(#a);}</style><filter id="a" x="72" y="40" width="81" height="54" filterUnits="userSpaceOnUse"><feOffset input="SourceAlpha"/><feGaussianBlur stdDeviation="3" result="b"/><feFlood flood-color="#fff"/><feComposite operator="in" in2="b"/><feComposite in="SourceGraphic"/></filter></defs><g transform="translate(-672 -487)"><path class="a" d="M1896.787,1537.074c-61.282,0-110.961,20.164-110.961,45.036,0,20.259,32.975,37.373,78.317,43.032v28.215l34.722-34.722-34.722-34.72v24.339c-31.049-5.207-52.9-17.608-52.9-32.091,0-19.176,38.3-34.722,85.548-34.722s85.55,15.546,85.55,34.722c0,16.472-28.269,30.255-66.183,33.818l9.7,9.009-7.895,7.328c51.151-4.013,89.789-22.273,89.789-44.208C2007.751,1557.238,1958.071,1537.074,1896.787,1537.074Z" transform="translate(-1113.826 -1021.89)"/><g class="d" transform="matrix(1, 0, 0, 1, 672, 487)"><text class="b" transform="translate(81 75)"><tspan x="0" y="0">360°</tspan></text></g><text class="c" transform="translate(783 499)"><tspan x="-48.888" y="0">Swipe to rotate</tspan></text></g></svg>